<svg width="161" height="182" xmlns="http://www.w3.org/2000/svg" xmlns:xlink="http://www.w3.org/1999/xlink" overflow="hidden"><defs><clipPath id="clip0"><path d="M572 281 733 281 733 463 572 463Z" fill-rule="evenodd" clip-rule="evenodd"/></clipPath></defs><g clip-path="url(#clip0)" transform="translate(-572 -281)"><rect x="572" y="281" width="157" height="158" fill="#FFFFFF"/><path d="M647 392.791 650.265 393 650.262 393 647 392.792ZM663.673 300 692 300 692 354.479C692 359.881 691.154 364.982 689.462 369.781 687.77 374.581 685.117 378.778 681.503 382.372 679.696 384.17 677.844 385.7 675.949 386.962L671.419 389.284 664.298 387.505C658.472 385.559 652.952 382.709 647.961 379.03L647 378.196 647 371.507 648.005 371.668C652.894 371.668 656.727 370.287 659.505 367.523 662.284 364.761 663.673 360.845 663.673 355.776Z" fill="#ED7D31" fill-rule="evenodd"/><path d="M605 300 633.13 300 633.13 355.776C633.13 358.269 633.475 360.489 634.165 362.437L635.961 365.344 635.624 365.58C642.993 376.105 653.352 383.613 664.921 387.505L672 389.285 670.721 389.946C665.244 391.982 658.668 393 650.992 393 646.553 393 641.709 392.688 636.46 392.065 631.211 391.441 626.824 390.205 623.297 388.356 619.771 386.507 616.545 383.879 613.62 380.471 610.695 377.064 608.693 373.552 607.614 369.937 605.871 364.119 605 358.967 605 354.479Z" fill="#FFC000" fill-rule="evenodd"/><path d="M678.596 387.828C660.948 386.443 645.277 376.862 637.011 362.402" stroke="#FFFFFF" stroke-width="6" stroke-miterlimit="8" fill="none" fill-rule="evenodd"/><text font-family="Calibri,Calibri_MSFontService,sans-serif" font-weight="700" font-size="43" transform="translate(600.334 425)">UIML.</text></g></svg>