<svg width="158" height="164" xmlns="http://www.w3.org/2000/svg" xmlns:xlink="http://www.w3.org/1999/xlink" overflow="hidden"><defs><clipPath id="clip0"><path d="M429 402 587 402 587 566 429 566Z" fill-rule="evenodd" clip-rule="evenodd"/></clipPath></defs><g clip-path="url(#clip0)" transform="translate(-429 -402)"><path d="M502 495.791 505.265 496 505.262 496 502 495.792ZM518.673 403 547 403 547 457.479C547 462.881 546.154 467.982 544.462 472.781 542.77 477.581 540.117 481.778 536.503 485.372 534.696 487.17 532.844 488.7 530.949 489.962L526.419 492.284 519.298 490.505C513.472 488.559 507.952 485.709 502.961 482.03L502 481.196 502 474.507 503.005 474.668C507.894 474.668 511.727 473.287 514.505 470.523 517.284 467.761 518.673 463.845 518.673 458.776Z" fill="#ED7D31" fill-rule="evenodd"/><path d="M459 403 487.13 403 487.13 458.776C487.13 461.269 487.475 463.489 488.165 465.437L489.961 468.344 489.624 468.58C496.993 479.105 507.352 486.613 518.921 490.505L526 492.285 524.721 492.946C519.244 494.982 512.668 496 504.992 496 500.553 496 495.709 495.688 490.46 495.065 485.211 494.441 480.824 493.205 477.297 491.356 473.771 489.507 470.545 486.879 467.62 483.471 464.695 480.064 462.693 476.552 461.614 472.937 459.871 467.119 459 461.967 459 457.479Z" fill="#FFC000" fill-rule="evenodd"/><path d="M533.051 491.819C515.456 490.382 499.871 480.555 491.757 465.782" stroke="#FFFFFF" stroke-width="6" stroke-miterlimit="8" fill="none" fill-rule="evenodd"/><text font-family="Calibri,Calibri_MSFontService,sans-serif" font-weight="700" font-size="43" transform="translate(454.892 528)">UIML.</text></g></svg>